# xmcd
#
# Track frame offsets:
#	150
#	16146
#	38705
#	49271
#	80032
#	98073
#	112552
#	127098
#	146423
#	160379
#	171764
#	181536
#	187432
#	198076
#
# Disc length: 2874 seconds
#
# Revision: 0
# Processed by: cddbd v1.5.2PL0 Copyright (c) Steve Scherf et al.
# Submitted via: EasyCDDAExtractor 16.0.8.2
#
DISCID=b30b380e
DTITLE=Άνευ ερμηνευτού - Κυκλικοί χοροί-Συμφ. Ορχ. Δ. Αθηνών
DYEAR=2003
DGENRE=Παραδοσιακή
TTITLE0=Σ' αγαπώ γιατί είσαι ωραία [παραδ. Σμύρνης]
TTITLE1=Χαλασιά μου [παραδ. Ηπείρου]
TTITLE2=Μήλο μου κόκκινο [Παραδ. Μακεδονίας]
TTITLE3=Περιπλάνηση στην Ήπειρο [παρ. μοιρολόϊ Ηπείρου]
TTITLE4=Τζιβαέρι [παραδ. Δωδεκανήσων]
TTITLE5=Στό 'πα και στο ξαναλέω [παραδ. Μικράς Ασίας]
TTITLE6=Κερκυραϊκός [παραδ. Κέρκυρας]
TTITLE7=Σαν Μπάλος [παραδ. Κυκλάδων]
TTITLE8=Αγρίμια κι αγριμάκια μου [παραδ. Κρήτης, ριζίτικο]
TTITLE9=Σύνορα [παραδ. Βορείου Ηπείρου]
TTITLE10=Κλέφτικος χορός [σύνθεση Νίκος Σκαλκώτας]
TTITLE11=Κρητικός χορός [σύνθεση Νίκος Σκαλκώτας]
TTITLE12=Κυκλικοί χοροί [τμ. ζωναράδικο, θρακιώτικο, κερκυραϊκό]
TTITLE13=Σ' αγαπώ γιατί είσαι ωραία [παραδ. Σμύρνης, συμφωνικό]
EXTD=
EXTT0=
EXTT1=
EXTT2=
EXTT3=
EXTT4=
EXTT5=
EXTT6=
EXTT7=
EXTT8=
EXTT9=
EXTT10=
EXTT11=
EXTT12=
EXTT13=
PLAYORDER=
